<?xml version="1.0" encoding="UTF-8"?> <svg xmlns="http://www.w3.org/2000/svg" width="116" height="32" viewBox="0 0 116 32" fill="none"> <path d="M7.0494 29.0502C9.65784 30.7931 12.7245 31.7233 15.8617 31.7233H17.8444C18.6255 31.7233 19.399 31.5695 20.1206 31.2706C20.8423 30.9716 21.498 30.5335 22.0503 29.9812C22.6027 29.4288 23.0408 28.7731 23.3397 28.0515C23.6387 27.3298 23.7925 26.5563 23.7925 25.7752C23.7925 24.9941 23.6387 24.2206 23.3397 23.499C23.0408 22.7773 22.6027 22.1216 22.0503 21.5693C21.498 21.0169 20.8423 20.5788 20.1206 20.2799C19.399 19.9809 18.6255 19.8271 17.8444 19.8271L15.8617 19.828C15.0772 19.828 14.3103 19.5954 13.6581 19.1596C13.0058 18.7238 12.4974 18.1043 12.1972 17.3795C11.897 16.6548 11.8185 15.8573 11.9715 15.0879C12.1246 14.3185 12.5023 13.6117 13.057 13.057C13.6117 12.5023 14.3185 12.1246 15.0879 11.9715C15.8573 11.8185 16.6548 11.897 17.3795 12.1972C18.1043 12.4974 18.7238 13.0058 19.1596 13.6581C19.5954 14.3103 19.828 15.0772 19.828 15.8617L23.7925 15.8617C23.7925 14.2931 23.3274 12.7598 22.4559 11.4555C21.5845 10.1513 20.3458 9.1348 18.8967 8.53454C17.4475 7.93427 15.8529 7.77721 14.3144 8.08323C12.776 8.38924 11.3629 9.14458 10.2537 10.2537C9.14458 11.3629 8.38924 12.776 8.08323 14.3144C7.77721 15.8529 7.93427 17.4475 8.53454 18.8967C9.1348 20.3458 10.1513 21.5845 11.4555 22.4559C12.7598 23.3274 14.2931 23.7925 15.8617 23.7925L17.8444 23.7925C18.1047 23.7925 18.3626 23.8438 18.6031 23.9434C18.8437 24.0431 19.0623 24.1891 19.2464 24.3732C19.4305 24.5573 19.5765 24.7759 19.6762 25.0165C19.7758 25.257 19.8271 25.5148 19.8271 25.7752C19.8271 26.0356 19.7758 26.2934 19.6762 26.534C19.5765 26.7745 19.4305 26.9931 19.2464 27.1772C19.0623 27.3613 18.8437 27.5074 18.6031 27.607C18.3626 27.7066 18.1047 27.7579 17.8444 27.7579H15.8617C13.5088 27.7579 11.2088 27.0602 9.25246 25.753C7.29613 24.4459 5.77136 22.5879 4.87096 20.4142C3.97056 18.2404 3.73498 15.8485 4.19399 13.5408C4.65301 11.2332 5.78602 9.11347 7.44974 7.44975C9.11346 5.78603 11.2332 4.65303 13.5408 4.19401C15.8485 3.73499 18.2404 3.97057 20.4142 4.87097C22.5879 5.77137 24.4459 7.29614 25.753 9.25247C27.0602 11.2088 27.7579 13.5088 27.7579 15.8617L31.7233 15.8617C31.7233 12.7245 30.7931 9.65784 29.0502 7.0494C27.3073 4.44097 24.83 2.40794 21.9317 1.2074C19.0333 0.00687308 15.8441 -0.307241 12.7672 0.304784C9.69036 0.916809 6.86408 2.42749 4.64578 4.64578C2.42749 6.86407 0.916811 9.69035 0.304785 12.7672C-0.307241 15.8441 0.00687232 19.0333 1.2074 21.9317C2.40794 24.83 4.44096 27.3073 7.0494 29.0502Z" fill="#08765F"></path> <path d="M53.2368 18.8326C52.6818 14.2531 49.1963 11.6196 44.5813 11.6196C39.314 11.6196 35.293 15.3181 35.293 21.805C35.293 28.2725 39.2459 31.9903 44.5813 31.9903C49.6928 31.9903 52.7792 28.6113 53.2368 24.9613L48.9724 24.9419C48.5732 27.0622 46.8985 28.2822 44.6495 28.2822C41.6215 28.2822 39.5672 26.0456 39.5672 21.805C39.5672 17.6805 41.5923 15.3278 44.6787 15.3278C46.9862 15.3278 48.6511 16.6542 48.9724 18.8326H53.2368Z" fill="#1F2423"></path> <path d="M56.2599 31.7192H69.0241V28.2628H60.4757V11.8907H56.2599V31.7192Z" fill="#1F2423"></path> <path d="M76.0317 11.8907H71.8159V31.7192H76.0317V11.8907Z" fill="#1F2423"></path> <path d="M97.0936 18.8326C96.5386 14.2531 93.0531 11.6196 88.4381 11.6196C83.1708 11.6196 79.1497 15.3181 79.1497 21.805C79.1497 28.2725 83.1027 31.9903 88.4381 31.9903C93.5496 31.9903 96.636 28.6113 97.0936 24.9613L92.8291 24.9419C92.4299 27.0622 90.7553 28.2822 88.5063 28.2822C85.4783 28.2822 83.4239 26.0456 83.4239 21.805C83.4239 17.6805 85.4491 15.3278 88.5355 15.3278C90.8429 15.3278 92.5078 16.6542 92.8291 18.8326H97.0936Z" fill="#1F2423"></path> <path d="M110.934 17.5934H114.974C114.916 14.0595 111.995 11.6196 107.555 11.6196C103.184 11.6196 99.9804 14.0207 99.9998 17.6224C99.9901 20.5463 102.064 22.2213 105.433 23.0249L107.604 23.5671C109.775 24.0899 110.982 24.7095 110.992 26.0456C110.982 27.4979 109.6 28.4855 107.458 28.4855C105.267 28.4855 103.69 27.4786 103.554 25.4938H99.4741C99.5812 29.7829 102.668 32 107.506 32C112.375 32 115.237 29.686 115.247 26.0553C115.237 22.7538 112.735 21.0014 109.269 20.2268L107.477 19.8008C105.744 19.4039 104.294 18.7649 104.323 17.3416C104.323 16.0636 105.462 15.1245 107.526 15.1245C109.541 15.1245 110.778 16.0346 110.934 17.5934Z" fill="#1F2423"></path> </svg> 