<?xml version="1.0" encoding="UTF-8"?> <svg xmlns="http://www.w3.org/2000/svg" width="1791" height="1127" viewBox="0 0 1791 1127" fill="none"> <path fill-rule="evenodd" clip-rule="evenodd" d="M1237.03 0.922614C1346.48 0.922626 1453.47 33.9375 1544.46 95.7792C1635.45 157.62 1706.35 245.505 1748.21 348.308C1790.08 451.111 1801.03 564.225 1779.69 673.353C1758.35 782.481 1705.67 882.736 1628.3 961.435C1550.93 1040.13 1452.34 1093.74 1344.99 1115.46C1237.64 1137.18 1126.37 1126.03 1025.26 1083.43C950.994 1052.14 884.661 1004.92 830.588 945.379C827.984 961.862 823.493 978.019 817.182 993.517C806.563 1019.59 790.995 1043.3 771.363 1063.27C751.73 1083.24 728.417 1099.08 702.751 1109.9C677.085 1120.71 649.572 1126.28 621.785 1126.28H553.424C443.97 1126.28 336.983 1093.26 245.993 1031.42C155.005 969.58 84.1041 881.696 42.2406 778.892C0.377449 676.09 -10.5741 562.975 10.7661 453.848C32.1066 344.72 84.7841 244.465 162.154 165.766C239.525 87.0661 338.115 33.458 445.463 11.7386C552.811 -9.98113 664.08 1.16732 765.193 43.769C839.46 75.0599 905.793 122.285 959.866 181.821C962.47 165.339 966.961 149.181 973.272 133.683C983.891 107.606 999.459 83.904 1019.09 63.9343C1038.72 43.9644 1062.04 28.1175 1087.7 17.3037C1113.37 6.48987 1140.88 0.922598 1168.67 0.922615L1237.03 0.922614ZM1537.27 106.364C1448.39 45.9561 1343.9 13.7205 1237.03 13.7205L1168.67 13.7205C1142.59 13.7205 1116.77 18.9447 1092.67 29.0976C1068.57 39.2506 1046.67 54.135 1028.22 72.9065C1009.76 91.6781 995.118 113.969 985.125 138.51C977.481 157.28 972.674 177.084 970.836 197.248L969.467 212.263L959.618 200.848C905.176 137.749 837.035 87.9258 760.223 55.5629C661.476 13.9578 552.823 3.07365 448.001 24.2823C343.177 45.4909 246.876 97.8439 171.28 174.738C95.6833 251.633 44.1892 349.617 23.326 456.304C2.46309 562.991 13.1716 673.575 54.0934 774.066C95.0148 874.555 164.306 960.428 253.187 1020.84C342.067 1081.24 446.55 1113.48 553.424 1113.48L621.785 1113.48C647.861 1113.48 673.684 1108.26 697.782 1098.1C721.879 1087.95 743.782 1073.07 762.237 1054.29C780.691 1035.52 795.336 1013.23 805.329 988.69C812.973 969.92 817.781 950.116 819.619 929.952L820.987 914.938L830.836 926.353C885.278 989.451 953.419 1039.27 1030.23 1071.64C1128.98 1113.24 1237.63 1124.13 1342.45 1102.92C1447.28 1081.71 1543.58 1029.36 1619.17 952.463C1694.77 875.567 1746.26 777.584 1767.13 670.897C1787.99 564.209 1777.28 453.626 1736.36 353.135C1695.44 252.645 1626.15 166.772 1537.27 106.364ZM1461.31 221.996C1394.91 176.869 1316.86 152.79 1237.03 152.79L1168.67 152.79C1160.55 152.79 1152.5 154.417 1144.99 157.581C1137.48 160.745 1130.65 165.386 1124.89 171.243C1119.14 177.101 1114.56 184.062 1111.44 191.729C1108.32 199.397 1106.71 207.62 1106.71 215.926C1106.71 224.232 1108.32 232.454 1111.44 240.122C1114.56 247.79 1119.14 254.751 1124.89 260.609C1130.65 266.466 1137.48 271.107 1144.99 274.271C1152.5 277.435 1160.55 279.062 1168.67 279.062L1237.03 279.062C1292.4 279.062 1346.52 295.764 1392.54 327.043C1438.57 358.322 1474.42 402.767 1495.59 454.747C1516.75 506.726 1522.29 563.917 1511.5 619.09C1500.71 674.265 1474.08 724.96 1434.95 764.76C1395.82 804.562 1345.95 831.679 1291.65 842.667C1237.34 853.654 1181.05 848.014 1129.9 826.464C1078.76 804.915 1035.06 768.43 1004.32 721.639C973.587 674.85 957.189 619.852 957.189 563.6C957.189 482.326 933.495 402.885 889.115 335.325C844.735 267.766 781.668 215.126 707.902 184.046C634.137 152.967 552.975 144.837 474.673 160.68C396.371 176.523 324.431 215.63 267.956 273.075C211.48 330.521 173.008 403.725 157.42 483.435C141.832 563.146 149.833 645.767 180.407 720.846C210.98 795.924 262.747 860.077 329.145 905.205C395.541 950.331 473.591 974.41 553.423 974.41L621.784 974.41C629.906 974.411 637.951 972.783 645.46 969.619C652.97 966.455 659.801 961.815 665.56 955.957C671.319 950.099 675.893 943.139 679.015 935.471C682.138 927.803 683.746 919.58 683.746 911.274C683.746 902.968 682.138 894.746 679.015 887.078C675.893 879.41 671.319 872.45 665.56 866.592C659.801 860.734 652.97 856.093 645.46 852.929C637.951 849.765 629.906 848.138 621.784 848.138L553.424 848.139C498.052 848.139 443.932 831.436 397.91 800.157C351.889 768.879 316.036 724.433 294.869 672.453C273.702 620.474 268.165 563.284 278.955 508.11C289.744 452.936 316.379 402.24 355.507 362.44C394.637 322.639 444.504 295.521 498.809 284.533C553.114 273.546 609.403 279.186 660.55 300.736C711.697 322.286 755.395 358.771 786.132 405.561C816.867 452.35 833.266 507.348 833.265 563.6C833.265 644.875 856.96 724.315 901.34 791.876C945.719 859.435 1008.79 912.074 1082.55 943.154C1156.32 974.233 1237.48 982.363 1315.78 966.521C1394.08 950.678 1466.02 911.57 1522.5 854.125C1578.97 796.679 1617.45 723.475 1633.03 643.765C1648.62 564.055 1640.62 481.434 1610.05 406.354C1579.47 331.276 1527.71 267.123 1461.31 221.996ZM1237.03 139.992C1319.44 139.992 1400 164.851 1468.5 211.411C1537.01 257.971 1590.38 324.136 1621.9 401.528C1653.41 478.919 1661.66 564.071 1645.59 646.222C1629.53 728.373 1589.87 803.848 1531.62 863.097C1473.37 922.348 1399.15 962.711 1318.32 979.064C1237.49 995.418 1153.71 987.024 1077.58 954.948C1001.45 922.872 936.403 868.562 890.643 798.902C844.884 729.243 820.467 647.358 820.467 563.6C820.468 509.831 804.792 457.278 775.435 412.588C746.079 367.898 704.365 333.084 655.581 312.53C606.799 291.977 553.126 286.601 501.347 297.077C449.566 307.554 401.988 333.417 364.634 371.412C327.278 409.409 301.827 457.833 291.515 510.566C281.203 563.3 286.496 617.959 306.722 667.626C326.947 717.293 361.19 759.726 405.104 789.572C449.016 819.418 500.632 835.341 553.424 835.341L621.784 835.34C631.617 835.341 641.351 837.311 650.43 841.136C659.508 844.96 667.749 850.564 674.686 857.62C681.623 864.676 687.12 873.046 690.868 882.251C694.616 891.456 696.544 901.318 696.544 911.274C696.544 921.231 694.616 931.093 690.868 940.298C687.12 949.502 681.623 957.873 674.686 964.929C667.749 971.985 659.508 977.589 650.429 981.413C641.351 985.238 631.617 987.208 621.784 987.208L553.423 987.208C471.01 987.208 390.457 962.35 321.951 915.789C253.446 869.23 200.07 803.064 168.554 725.673C137.039 648.282 128.795 563.129 144.86 480.979C160.925 398.828 200.581 323.352 258.83 264.103C317.08 204.852 391.309 164.49 472.135 148.136C552.962 131.783 636.741 140.177 712.871 172.253C789 204.328 854.051 258.638 899.811 328.298C945.57 397.957 969.987 479.842 969.987 563.6C969.987 617.369 985.662 669.922 1015.02 714.613C1044.38 759.302 1086.09 794.117 1134.87 814.67C1183.66 835.224 1237.33 840.6 1289.11 830.123C1340.89 819.646 1388.47 793.784 1425.82 755.788C1463.18 717.792 1488.63 669.368 1498.94 616.634C1509.25 563.901 1503.96 509.242 1483.73 459.574C1463.51 409.907 1429.26 367.474 1385.35 337.628C1341.44 307.783 1289.82 291.86 1237.03 291.86L1168.67 291.86C1158.84 291.86 1149.1 289.89 1140.02 286.065C1130.95 282.24 1122.71 276.637 1115.77 269.581C1108.83 262.525 1103.33 254.154 1099.59 244.949C1095.84 235.745 1093.91 225.883 1093.91 215.926C1093.91 205.969 1095.84 196.107 1099.59 186.903C1103.33 177.698 1108.83 169.327 1115.77 162.271C1122.71 155.215 1130.95 149.612 1140.02 145.787C1149.1 141.962 1158.84 139.992 1168.67 139.992L1237.03 139.992ZM1237.03 430.896C1237.03 430.896 1237.03 430.896 1237.03 430.896L1168.67 430.929C1140.89 430.929 1113.37 425.362 1087.7 414.548C1087.42 414.428 1087.13 414.306 1086.84 414.184C1099.96 462.6 1106.71 512.841 1106.71 563.6V566.606C1107.27 591.825 1114.88 616.375 1128.67 637.368C1143.01 659.193 1163.37 676.187 1187.18 686.218C1210.99 696.248 1237.18 698.87 1262.44 693.758C1287.71 688.647 1310.93 676.026 1329.17 657.475C1347.41 638.923 1359.84 615.273 1364.88 589.51C1369.92 563.746 1367.33 537.043 1357.45 512.781C1347.57 488.52 1330.85 467.801 1309.41 453.233C1287.98 438.665 1262.79 430.897 1237.03 430.896ZM1093.88 557.485L1093.88 563.6C1093.88 592.354 1102.26 620.47 1117.98 644.395C1133.69 668.321 1156.04 686.985 1182.21 698.011C1208.38 709.038 1237.19 711.925 1264.98 706.302C1292.77 700.679 1318.28 686.804 1338.29 666.447C1358.31 646.091 1371.92 620.17 1377.44 591.966C1382.95 563.762 1380.12 534.528 1369.3 507.954C1358.48 481.38 1340.15 458.649 1316.6 442.648C1293.06 426.646 1265.37 418.098 1237.03 418.098L1168.67 418.131C1168.67 418.131 1168.67 418.132 1168.67 418.131C1142.59 418.131 1116.77 412.907 1092.67 402.754C1088.3 400.91 1083.99 398.91 1079.77 396.759L1066.48 389.991L1070.73 404.286C1085.44 453.737 1093.31 505.3 1093.88 557.485ZM661.783 489.832C647.446 468.007 627.08 451.013 603.273 440.983C579.467 430.953 553.278 428.33 528.013 433.442C502.748 438.554 479.525 451.175 461.287 469.726C443.048 488.278 430.615 511.928 425.577 537.691C420.539 563.454 423.126 590.157 433.006 614.419C442.885 638.68 459.608 659.399 481.044 673.968C502.478 688.536 527.666 696.304 553.424 696.304L621.782 696.271C649.569 696.271 677.085 701.838 702.751 712.652C703.037 712.773 703.324 712.894 703.609 713.016C690.497 664.6 683.746 614.36 683.746 563.6V560.589C683.184 535.372 675.572 510.823 661.783 489.832ZM696.577 569.728L696.577 563.6C696.577 534.847 688.195 506.73 672.479 482.806C656.762 458.88 634.412 440.215 608.242 429.189C582.071 418.162 553.266 415.275 525.475 420.898C497.685 426.521 472.174 440.397 452.161 460.754C432.149 481.109 418.533 507.031 413.017 535.235C407.502 563.438 410.332 592.672 421.153 619.246C431.974 645.82 450.307 668.552 473.85 684.552C497.394 700.554 525.086 709.102 553.424 709.102L621.785 709.069C647.861 709.069 673.684 714.293 697.782 724.446C702.159 726.29 706.464 728.291 710.689 730.442L723.979 737.209L719.725 722.915C705.013 673.467 697.148 621.909 696.577 569.728Z" fill="#065947"></path> </svg> 