<?xml version="1.0" encoding="UTF-8"?> <svg xmlns="http://www.w3.org/2000/svg" width="463" height="128" viewBox="0 0 463 128" fill="none"> <path d="M28.2871 116.201C38.754 123.172 51.0597 126.893 63.6481 126.893H71.6041C74.7385 126.893 77.8422 126.278 80.738 125.082C83.6338 123.887 86.265 122.134 88.4813 119.925C90.6977 117.715 92.4558 115.093 93.6553 112.206C94.8547 109.319 95.4721 106.225 95.4721 103.101C95.4721 99.9764 94.8547 96.8825 93.6553 93.9959C92.4558 91.1093 90.6977 88.4864 88.4813 86.2771C86.265 84.0677 83.6338 82.3152 80.738 81.1195C77.8422 79.9238 74.7385 79.3084 71.6041 79.3084L63.6481 79.3122C60.5002 79.3122 57.423 78.3817 54.8057 76.6384C52.1884 74.8951 50.1484 72.4172 48.9438 69.5182C47.7391 66.6191 47.4239 63.4291 48.0381 60.3515C48.6522 57.2739 50.168 54.447 52.3939 52.2281C54.6197 50.0093 57.4557 48.4983 60.543 47.8861C63.6304 47.2739 66.8305 47.5881 69.7388 48.7889C72.647 49.9897 75.1327 52.0233 76.8816 54.6323C78.6304 57.2414 79.5639 60.3088 79.5639 63.4467L95.4721 63.4467C95.4721 57.1724 93.6056 51.0391 90.1088 45.8222C86.6119 40.6053 81.6417 36.5392 75.8266 34.1382C70.0115 31.7371 63.6128 31.1089 57.4395 32.3329C51.2662 33.557 45.5958 36.5783 41.1451 41.0149C36.6944 45.4515 33.6635 51.1041 32.4355 57.2578C31.2076 63.4115 31.8378 69.79 34.2465 75.5867C36.6552 81.3834 40.7341 86.3379 45.9676 89.8237C51.201 93.3095 57.3539 95.1701 63.6481 95.1701L71.604 95.17C72.6488 95.17 73.6834 95.3752 74.6487 95.7737C75.614 96.1723 76.491 96.7565 77.2298 97.4929C77.9686 98.2294 78.5546 99.1037 78.9545 100.066C79.3543 101.028 79.5601 102.059 79.5601 103.101C79.5601 104.142 79.3543 105.174 78.9545 106.136C78.5546 107.098 77.9686 107.972 77.2298 108.709C76.491 109.445 75.614 110.029 74.6487 110.428C73.6834 110.827 72.6488 111.032 71.604 111.032H63.648C54.2067 111.032 44.9774 108.241 37.1273 103.012C29.2771 97.7835 23.1587 90.3517 19.5457 81.6567C15.9326 72.9617 14.9873 63.3939 16.8292 54.1633C18.6711 44.9328 23.2175 36.4539 29.8935 29.799C36.5696 23.1442 45.0753 18.6121 54.3352 16.776C63.5951 14.94 73.1932 15.8823 81.9158 19.4839C90.6384 23.0855 98.0938 29.1846 103.339 37.0099C108.584 44.8352 111.384 54.0353 111.384 63.4467L127.296 63.4467C127.296 50.8982 123.563 38.6314 116.569 28.1976C109.576 17.7639 99.6353 9.63175 88.0051 4.82962C76.375 0.0274923 63.5775 -1.22897 51.231 1.21914C38.8844 3.66724 27.5434 9.70995 18.6421 18.5831C9.74077 27.4563 3.67888 38.7614 1.22301 51.0689C-1.23287 63.3763 0.0275765 76.1333 4.84494 87.7267C9.66231 99.3201 17.8202 109.229 28.2871 116.201Z" fill="#4BF3D0"></path> <path d="M213.624 75.3306C211.397 57.0124 197.411 46.4785 178.892 46.4785C157.756 46.4785 141.621 61.2725 141.621 87.2199C141.621 113.09 157.483 127.961 178.892 127.961C199.403 127.961 211.788 114.445 213.624 99.8451L196.512 99.7677C194.91 108.249 188.191 113.129 179.166 113.129C167.016 113.129 158.772 104.183 158.772 87.2199C158.772 70.722 166.898 61.3112 179.283 61.3112C188.542 61.3112 195.223 66.6169 196.512 75.3306H213.624Z" fill="#ECFEFA"></path> <path d="M225.755 126.877H276.974V113.051H242.672V47.5629H225.755V126.877Z" fill="#ECFEFA"></path> <path d="M305.093 47.5629H288.177V126.877H305.093V47.5629Z" fill="#ECFEFA"></path> <path d="M389.608 75.3306C387.381 57.0124 373.395 46.4785 354.876 46.4785C333.74 46.4785 317.605 61.2725 317.605 87.2199C317.605 113.09 333.467 127.961 354.876 127.961C375.387 127.961 387.772 114.445 389.608 99.8451L372.496 99.7677C370.894 108.249 364.175 113.129 355.15 113.129C343 113.129 334.756 104.183 334.756 87.2199C334.756 70.722 342.882 61.3112 355.267 61.3112C364.526 61.3112 371.207 66.6169 372.496 75.3306H389.608Z" fill="#ECFEFA"></path> <path d="M445.144 70.3734H461.357C461.123 56.2379 449.402 46.4785 431.587 46.4785C414.046 46.4785 401.192 56.083 401.27 70.4896C401.231 82.1854 409.553 88.8852 423.07 92.0996L431.783 94.2684C440.495 96.3596 445.339 98.8382 445.378 104.183C445.339 109.992 439.792 113.942 431.197 113.942C422.406 113.942 416.077 109.914 415.53 101.975H399.16C399.59 119.131 411.975 128 431.392 128C450.926 128 462.412 118.744 462.451 104.221C462.412 91.0152 452.372 84.0056 438.463 80.9073L431.275 79.2033C424.321 77.6155 418.499 75.0595 418.617 69.3665C418.617 64.2545 423.188 60.4979 431.47 60.4979C439.557 60.4979 444.519 64.1383 445.144 70.3734Z" fill="#ECFEFA"></path> </svg> 